{"title":"TNA.Impact.02.17.2011.HDTV.XviD-XS.demon.mastitorrents","uid":6182875,"size":797241994,"categoryP":"video","categoryS":"tv_shows","magnet":"?xt=urn:btih:4123838f2403dd037f58b295dbb18a0c27583535&amp;dn=TNA.Impact.02.17.2011.HDTV.XviD-XS.demon.mastitorrents&amp;tr=udp%3A%2F%2Ftracker.openbittorrent.com%3A80&amp;tr=udp%3A%2F%2Fopen.demonii.com%3A1337&amp;tr=udp%3A%2F%2Ftracker.coppersurfer.tk%3A6969&amp;tr=udp%3A%2F%2Fexodus.desync.com%3A6969","seeders":0,"leechers":0,"uploader":"tdkdemon","files":-1,"time":1298017160,"description":"$ DEMON TORRENTS $    #######   SERIOUS       UPLOADING!!!!!       ########\n\n\n\n\n\n\n\n\n\n\n\n\n\n\n\n....ALL THE FILES UPLOADED ARE NOT CREATED BY THE UPLOADER....\n\n\n\n\n\n\n\n\n\n\nUPLOADER : DEMON~THE DARK MASTER(TDM)\n\n\n\n\n\n\nDescription\t\n\n\n\n\n\n\nTNA.Impact.02.17.2011.HDTV.XviD-XS \n\nGeneral Information \nFormat : AVI \nFormat/Info : Audio Video Interleave \nFile size : 760 MiB \nDuration : 1h 25mn \nOverall bit rate : 1 237 Kbps \nWriting application : Lavf51.12.1 \nVideo \nID : 0 \nFormat : MPEG-4 Visual \nFormat profile : Simple@L1 \nFormat settings, BVOP : No \nFormat settings, QPel : No \nFormat settings, GMC : No warppoints \nFormat settings, Matrix : Default (H.263) \nCodec ID : DX50 \nCodec ID/Hint : DivX 5 \nDuration : 1h 25mn \nBit rate : 1 095 Kbps \nWidth : 624 pixels \nHeight : 352 pixels \nDisplay aspect ratio : 16:9 \nFrame rate : 29.970 fps \nColor space : YUV \nChroma subsampling : 4:2:0 \nBit depth : 8 bits \nScan type : Progressive \nBits/(Pixel*Frame) : 0.166 \nStream size : 673 MiB (89%) \nWriting library : Lavc51.40.4 \nAudio \nID : 1 \nFormat : MPEG Audio \nFormat version : Version 1 \nFormat profile : Layer 3 \nMode : Joint stereo \nMode extension : MS Stereo \nCodec ID : 55 \nCodec ID/Hint : MP3 \nDuration : 1h 25mn \nBit rate mode : Constant \nBit rate : 128 Kbps \nChannel(s) : 2 channels \nSampling rate : 48.0 KHz \nStream size : 78.7 MiB (10%) \nAlignment : Aligned on interleaves \nInterleave, duration : 24 ms (0.72 video frame)\n\n\n\n\n\n\n\n\n\n\n\n\n\n\n\n\n\n&lt;&lt;&lt;&lt;&lt;&lt;&lt;    mastitorrents  &gt;&gt;&gt;&gt;&gt;&gt;\n\n\n\n\n\n\n\n\n\n\n\n\n\n\n\n\n****check out my other releases****\n     &lt;a href=&quot;\nhttp://thepiratebay.se/user/tdkdemon/&quot; rel=&quot;nofollow&quot; target=&quot;_NEW&quot;&gt;\nhttp://thepiratebay.se/user/tdkdemon/&lt;/a&gt;\n\n\n\n\n                  \n\n\n\n\n\n\n\n\n\n\n\n\n\n\n@@@@@  SEED    SEED     SEED        AFTER     &quot;YOU&quot;     DOWNLOAD     !!!!!!!@@@@@\n\n\n\n\n\n\n\n\n\n","torrent":{"xt":"urn:btih:4123838f2403dd037f58b295dbb18a0c27583535","amp;dn":"TNA.Impact.02.17.2011.HDTV.XviD-XS.demon.mastitorrents","amp;tr":["udp%3A%2F%2Ftracker.openbittorrent.com%3A80","udp%3A%2F%2Fopen.demonii.com%3A1337","udp%3A%2F%2Ftracker.coppersurfer.tk%3A6969","udp%3A%2F%2Fexodus.desync.com%3A6969"],"infoHash":"4123838f2403dd037f58b295dbb18a0c27583535","infoHashBuffer":{"type":"Buffer","data":[65,35,131,143,36,3,221,3,127,88,178,149,219,177,138,12,39,88,53,53]},"announce":[],"urlList":[]}}